HIERARCHY
ROOT hip
{
	OFFSET 0.000000 0.000000 0.000000 
	CHANNELS 6 Xposition Yposition Zposition Xrotation Zrotation Yrotation
	JOINT abdomen
	{
		OFFSET 0.000000 3.402643 0.000000 
		CHANNELS 3 Xrotation Zrotation Yrotation
		JOINT chest
		{
			OFFSET 0.000000 8.438565 -0.680529 
			CHANNELS 3 Xrotation Zrotation Yrotation
			JOINT neck
			{
				OFFSET 0.000000 10.207942 -0.272212 
				CHANNELS 3 Xrotation Zrotation Yrotation
				JOINT head
				{
					OFFSET 0.000000 3.130431 0.000000 
					CHANNELS 3 Xrotation Zrotation Yrotation
					End Site
					{
						OFFSET 0.000000 3.130435 0.000000 
					}
				}
			}
			JOINT lCollar
			{
				OFFSET 3.470700 6.669187 -0.816635 
				CHANNELS 3 Yrotation Zrotation Xrotation
				JOINT lShldr
				{
					OFFSET 3.198488 0.000000 0.000000 
					CHANNELS 3 Zrotation Yrotation Xrotation
					JOINT lForeArm
					{
						OFFSET 10.139888 0.000000 0.000000 
						CHANNELS 3 Yrotation Zrotation Xrotation
						JOINT lHand
						{
							OFFSET 8.370511 0.000000 0.000000 
							CHANNELS 3 Zrotation Yrotation Xrotation
							End Site
							{
								OFFSET 4.083176 0.000000 0.000000 
							}
						}
					}
				}
			}
			JOINT rCollar
			{
				OFFSET -3.470700 6.669187 -0.816635 
				CHANNELS 3 Yrotation Zrotation Xrotation
				JOINT rShldr
				{
					OFFSET -3.198488 0.000000 0.000000 
					CHANNELS 3 Zrotation Yrotation Xrotation
					JOINT rForeArm
					{
						OFFSET -10.139888 0.000000 0.000000 
						CHANNELS 3 Yrotation Zrotation Xrotation
						JOINT rHand
						{
							OFFSET -8.370511 0.000000 0.000000 
							CHANNELS 3 Zrotation Yrotation Xrotation
							End Site
							{
								OFFSET -4.083176 0.000000 0.000000 
							}
						}
					}
				}
			}
		}
	}
	JOINT lThigh
	{
		OFFSET 5.308129 -1.633274 1.361059 
		CHANNELS 3 Xrotation Zrotation Yrotation
		JOINT lShin
		{
			OFFSET -2.041588 -20.007561 0.000000 
			CHANNELS 3 Xrotation Zrotation Yrotation
			JOINT lFoot
			{
				OFFSET 0.000000 -19.190928 -1.224953 
				CHANNELS 3 Xrotation Yrotation Zrotation
				End Site
				{
					OFFSET 0.000000 -2.449906 4.627600 
				}
			}
		}
	}
	JOINT rThigh
	{
		OFFSET -5.308129 -1.633274 1.361059 
		CHANNELS 3 Xrotation Zrotation Yrotation
		JOINT rShin
		{
			OFFSET 2.041588 -20.007561 0.000000 
			CHANNELS 3 Xrotation Zrotation Yrotation
			JOINT rFoot
			{
				OFFSET 0.000000 -19.190928 -1.224953 
				CHANNELS 3 Xrotation Yrotation Zrotation
				End Site
				{
					OFFSET 0.000000 -2.449906 4.627600 
				}
			}
		}
	}
}
MOTION
Frames: 6
Frame Time: 0.011111
9.386847 49.291653 -52.267902 -3.522253 1.746493 -5.312446 8.219810 -3.385879 4.929783 -5.021645 3.387802 1.585627 -12.428242 -8.025332 -1.770096 30.540470 16.168142 -0.651416 12.413046 -14.960623 4.251975 -69.231812 -17.235226 -2.469071 -42.592987 5.796758 4.376538 6.992188 16.005859 -71.208237 -6.427974 8.898234 2.089853 71.217133 67.005661 31.910170 67.454208 -10.207694 14.728910 -7.001954 -15.996095 72.578125 -8.132163 -2.558149 7.946117 38.672077 -5.122483 -2.929253 -22.334314 -12.824949 -5.341833 -30.752964 -9.674009 -5.123989 57.478882 4.412451 4.343497 -21.247343 0.755649 0.274876 
9.404050 49.344196 -51.781544 -3.254391 2.119987 -4.512279 7.912312 -3.803992 4.604482 -5.315193 3.228298 1.493543 -12.380209 -7.998187 -1.986218 30.764647 16.522680 -0.941355 12.413046 -14.960623 4.251975 -68.484413 -16.440830 -2.880897 -42.440376 5.745424 4.331034 6.992188 16.005859 -72.087151 -6.427974 8.898234 2.089853 70.908005 67.407478 31.177078 67.820976 -10.206379 14.908716 -7.001954 -15.996095 72.578125 -7.312388 -3.143923 7.513946 37.751686 -5.142505 -2.848558 -22.451468 -12.898973 -5.390926 -32.047962 -10.184345 -4.936126 55.502216 4.501818 4.224371 -22.138624 0.002574 -0.090290 
9.454092 49.424580 -51.287994 -3.210349 2.389190 -3.439636 7.850513 -3.998619 3.961567 -5.246752 3.311035 1.319969 -12.668151 -7.818047 -2.116296 30.967262 16.101006 -1.325062 12.413046 -14.960623 4.251975 -68.064735 -16.145538 -3.408744 -42.043518 5.605982 4.184453 6.992188 16.005859 -72.624260 -6.427974 8.898234 2.089853 70.406265 68.092827 30.741940 68.247940 -10.191802 15.098058 -7.001954 -15.996095 72.646484 -6.200637 -3.700932 6.854161 36.811283 -5.161591 -2.786866 -22.723547 -13.003139 -5.467449 -32.790192 -10.848379 -4.992066 53.170105 4.599422 4.043519 -22.549423 -0.609545 -0.372789 
9.476611 49.509968 -50.806953 -3.328566 1.889000 -2.672487 8.054913 -3.344990 3.677590 -4.982582 3.449840 1.225657 -12.627703 -8.075998 -2.077602 30.449455 16.345522 -1.305293 12.413046 -14.960623 4.251975 -68.009331 -16.174818 -4.270476 -41.728455 5.494008 4.069059 6.992188 16.005859 -73.561760 -6.427974 8.898234 2.089853 69.629189 68.988281 30.461561 68.666367 -10.179530 15.295556 -7.001954 -15.996095 73.125000 -5.040080 -3.374468 6.107964 35.852425 -5.165253 -2.719352 -22.670179 -13.204918 -5.579662 -33.015217 -10.506805 -4.964775 50.728210 4.697101 3.864975 -22.927519 -1.521729 -0.758727 
9.463476 49.545620 -50.337486 -3.485701 1.681586 -2.107808 8.306794 -3.196235 3.550090 -4.894434 3.554863 1.190497 -12.478892 -8.497710 -2.098118 29.974480 17.252972 -1.193248 12.413046 -14.960623 4.251975 -67.948608 -16.175255 -6.036093 -41.555450 5.427729 4.001744 6.992188 16.005859 -75.690666 -6.427974 8.898234 2.089853 69.010986 69.752289 30.003942 68.977188 -10.167888 15.443858 -7.001954 -15.996095 73.886719 -3.813699 -3.278076 5.674369 34.859707 -5.194849 -2.628804 -22.689917 -13.344607 -5.653810 -33.315853 -10.300910 -4.540274 48.145008 4.811575 3.655953 -23.453827 -2.673171 -1.273661 
9.457533 49.588474 -49.865204 -3.565614 2.000810 -1.494445 8.381864 -3.716146 3.475515 -5.129331 3.432767 1.178113 -12.050536 -8.379086 -2.354674 29.689756 17.841824 -1.498584 12.413046 -14.960623 4.251975 -67.204666 -15.766091 -6.549259 -41.565842 5.434218 4.009117 6.992188 16.005859 -76.706291 -6.427974 8.898234 2.089853 68.539085 69.936516 28.995827 69.285728 -10.149853 15.581948 -7.001954 -15.996095 74.394531 -2.535403 -3.765055 4.811914 33.975628 -5.219296 -2.541594 -22.698246 -13.453596 -5.686428 -33.796059 -10.633648 -3.871950 45.463535 4.892256 3.463207 -23.972937 -3.819197 -1.799077 
